<svg id="Capa_1" data-name="Capa 1" xmlns="http://www.w3.org/2000/svg" viewBox="0 0 50 40"><defs><style>.cls-1{fill:#b5b5b5;}</style></defs><title>ai-view</title><polygon class="cls-1" points="26 -2.14 25.59 -2.14 23.78 2.71 25.8 7.57 27.81 2.71 26 -2.14"/><polygon class="cls-1" points="25.8 14.8 12.7 20.06 12.7 24.24 16.73 25.86 16.73 23.37 18.74 23.37 18.74 26.67 20.76 27.48 20.76 20.94 22.77 20.94 22.77 28.29 24.79 29.1 24.79 19.72 26.8 19.72 26.8 29.1 28.82 28.29 28.82 20.94 30.83 20.94 30.83 27.48 32.85 26.67 32.85 23.37 34.86 23.37 34.86 25.86 38.89 24.24 38.89 20.06 25.8 14.8"/><path class="cls-1" d="M25.8,32.07l-11-4.41c.75,6.49,5.37,11.66,11,11.66s10.2-5.17,11-11.66Z"/><path class="cls-1" d="M30,2.74v0L26.8,10.58v2.06l10.08,4.05V11.22C36.88,6.61,33.82,2.87,30,2.74Z"/><path class="cls-1" d="M21.55,2.77v0c-3.79.13-6.85,3.87-6.85,8.48v5.47l10.08-4.05V10.58Z"/></svg>