<svg id="Capa_1" data-name="Capa 1" xmlns="http://www.w3.org/2000/svg" viewBox="0 0 26.19 41.46"><defs><style>.cls-1{fill:#b5b5b5;}</style></defs><title>ai-view</title><polygon class="cls-1" points="13.3 0 12.89 0 11.08 4.86 13.1 9.72 15.11 4.86 13.3 0"/><polygon class="cls-1" points="13.1 16.94 0 22.2 0 26.39 4.03 28 4.03 25.51 6.04 25.51 6.04 28.81 8.06 29.62 8.06 23.08 10.07 23.08 10.07 30.43 12.09 31.24 12.09 21.86 14.1 21.86 14.1 31.24 16.12 30.43 16.12 23.08 18.13 23.08 18.13 29.62 20.15 28.81 20.15 25.51 22.16 25.51 22.16 28 26.19 26.39 26.19 22.2 13.1 16.94"/><path class="cls-1" d="M25.8,32.07l-11-4.41c.75,6.49,5.37,11.66,11,11.66s10.2-5.17,11-11.66Z" transform="translate(-12.7 2.14)"/><path class="cls-1" d="M30,2.74v0L26.8,10.58v2.06l10.08,4.05V11.22C36.88,6.61,33.82,2.87,30,2.74Z" transform="translate(-12.7 2.14)"/><path class="cls-1" d="M21.55,2.77v0c-3.79.13-6.85,3.87-6.85,8.48v5.47l10.08-4.05V10.58Z" transform="translate(-12.7 2.14)"/></svg>